# xmcd
#
# Track frame offsets:
# 150
# 16030
# 32066
# 49708
# 68729
# 84538
# 102213
# 120480
# 138126
# 159855
# 176541
# 198323
# 221586
# 235562
# 254438
# 273603
# 290675
# 307939
# 325375
#
# Disc length: 4552 seconds
#
# Revision: 0
# Processed by: cddbd v1.4PL0 Copyright (c) Steve Scherf et al.
# Submitted via: Axialis_AX_CDPlayer 2.6
#
DISCID=fe11c613
DTITLE=Johnny Lang - Best Of Johnny Lang
DYEAR=1900
DGENRE=
TTITLE0=Cherry Red
TTITLE1=A Taste Of Your Love
TTITLE2=You Hit The Ground
TTITLE3=Lie to Me
TTITLE4=Matchbox
TTITLE5=Missin' Your Love
TTITLE6=Mustang Sally
TTITLE7=Right Back
TTITLE8=Still Rainin'
TTITLE9=The Levee
TTITLE10=Wanderin' This World
TTITLE11=Second Guessing
TTITLE12=There's Gotta Be a Change
TTITLE13=Good Morning Little School Girl
TTITLE14=Blues
TTITLE15=Smokin'
TTITLE16=Everything Is Broken
TTITLE17=Break Me
TTITLE18=Paint It Black
EXTD=
EXTT0=
EXTT1=
EXTT2=
EXTT3=
EXTT4=
EXTT5=
EXTT6=
EXTT7=
EXTT8=
EXTT9=
EXTT10=
EXTT11=
EXTT12=
EXTT13=
EXTT14=
EXTT15=
EXTT16=
EXTT17=
EXTT18=
PLAYORDER=
